#!OML:ASF G:\JayActor3\Patient Classification 1\Patient 1\Session 6\male.ASF
:FULLY-SPECIFIED
:DEGREES
988
root -34.9373 16.467 -13.3837 -544.872 -7.12413 181.869
lowerback 0.444353 -0.629578 1.9472
upperback 3.24008 -0.954151 -0.522956
thorax 3.0397 -0.459074 -1.65145
lowerneck -7.0206 -1.31807 -0.445136
upperneck 9.1929 -2.31968 4.15748
head 4.36536 -1.02443 1.34025
rclavicle -1.33434e-014 2.38542e-015
rhumerus -33.1914 -3.68704 -86.6251
rradius 27.5578
rwrist 5.39519
rhand -17.3669 -10.7934
rfingers 7.12502
rthumb 8.88128 -40.5864
lclavicle -1.33434e-014 2.38542e-015
lhumerus -19.7967 2.38861 83.1129
lradius 41.9904
lwrist 22.7468
lhand -23.1137 12.3901
lfingers 7.12502
lthumb 3.33325 42.3438
rfemur -13.5596 7.96562 21.8031
rtibia 38.0958
rfoot -18.2588 -11.7039
rtoes -4.92652
lfemur -5.70704 5.42017 -18.0195
ltibia 29.0324
lfoot -15.1744 4.481
ltoes -27.9988
989
root -34.9229 16.4751 -13.4249 -544.756 -7.23321 181.933
lowerback 0.342067 -0.626153 2.03132
upperback 3.18831 -0.949471 -0.461559
thorax 3.04388 -0.453818 -1.63626
lowerneck -7.04451 -1.31382 -0.455452
upperneck 9.19723 -2.31232 4.15724
head 4.37174 -1.0205 1.3425
rclavicle -2.15309e-014 -5.56597e-015
rhumerus -33.1078 -3.58515 -86.5966
rradius 27.7039
rwrist 5.31168
rhand -17.3775 -10.6574
rfingers 7.12502
rthumb 8.87108 -40.451
lclavicle -2.15309e-014 -5.56597e-015
lhumerus -19.9217 2.64007 83.2665
lradius 41.6001
lwrist 22.6861
lhand -23.0235 12.3561
lfingers 7.12502
lthumb 3.42043 42.3084
rfemur -13.415 7.69094 21.9106
rtibia 37.8717
rfoot -18.2527 -11.549
rtoes -4.94839
lfemur -5.76474 5.46364 -17.9535
ltibia 29.1085
lfoot -15.1591 4.92486
ltoes -27.5024
990
root -34.9089 16.4828 -13.465 -544.628 -7.33856 181.985
lowerback 0.228117 -0.624808 2.1063
upperback 3.13583 -0.947787 -0.404033
thorax 3.05385 -0.450207 -1.62015
lowerneck -7.04258 -1.3205 -0.431007
upperneck 9.15878 -2.31882 4.13905
head 4.3568 -1.02352 1.33125
rclavicle 4.17448e-015 -1.19271e-015
rhumerus -33.0117 -3.46771 -86.5835
rradius 27.8591
rwrist 5.19246
rhand -17.4293 -10.5627
rfingers 7.12502
rthumb 8.8211 -40.3584
lclavicle 4.17448e-015 -1.19271e-015
lhumerus -20.0651 2.8784 83.4175
lradius 41.1672
lwrist 22.621
lhand -23.1338 12.3802
lfingers 7.12502
lthumb 3.3139 42.3342
rfemur -13.2913 7.44809 22.0148
rtibia 37.6511
rfoot -18.2089 -11.4997
rtoes -5.2508
lfemur -5.8272 5.47766 -17.9148
ltibia 29.1715
lfoot -15.1462 5.42849
ltoes -26.9801
991
root -34.8958 16.4902 -13.5045 -544.496 -7.45017 182.032
lowerback 0.100403 -0.63066 2.18193
upperback 3.08765 -0.956492 -0.348949
thorax 3.07555 -0.451674 -1.60742
lowerneck -7.01179 -1.33064 -0.412965
upperneck 9.07857 -2.32898 4.14042
head 4.32157 -1.02833 1.32738
rclavicle 3.80176e-015 1.51076e-014
rhumerus -32.9029 -3.32172 -86.5858
rradius 28.0232
rwrist 5.04258
rhand -17.5039 -10.5103
rfingers 7.12502
rthumb 8.74909 -40.3089
lclavicle 3.80176e-015 1.51076e-014
lhumerus -20.2218 3.10768 83.5634
lradius 40.688
lwrist 22.5488
lhand -23.3575 12.4564
lfingers 7.12502
lthumb 3.09788 42.4137
rfemur -13.1747 7.23148 22.1218
rtibia 37.4346
rfoot -18.1493 -11.5388
rtoes -5.76821
lfemur -5.87927 5.46413 -17.894
ltibia 29.2141
lfoot -15.1547 5.93083
ltoes -26.4745
992
root -34.8835 16.4973 -13.5435 -544.372 -7.57528 182.073
lowerback -0.0334615 -0.64509 2.2545
upperback 3.04691 -0.977567 -0.294471
thorax 3.10791 -0.459415 -1.59412
lowerneck -6.9694 -1.34128 -0.396465
upperneck 8.9788 -2.33844 4.14332
head 4.27704 -1.03301 1.32426
rclavicle 1.44367e-014 -2.38542e-015
rhumerus -32.786 -3.13609 -86.6067
rradius 28.2067
rwrist 4.83743
rhand -17.6182 -10.5249
rfingers 7.12502
rthumb 8.63878 -40.3281
lclavicle 1.44367e-014 -2.38542e-015
lhumerus -20.388 3.32268 83.7089
lradius 40.1572
lwrist 22.4699
lhand -23.6175 12.5298
lfingers 7.12502
lthumb 2.8468 42.4905
rfemur -13.0449 7.07355 22.2238
rtibia 37.2265
rfoot -18.165 -11.5869
rtoes -6.04305
lfemur -5.90517 5.43812 -17.8871
ltibia 29.229
lfoot -15.1935 6.39436
ltoes -25.9603
993
root -34.8721 16.504 -13.5823 -544.256 -7.71853 182.116
lowerback -0.17452 -0.669094 2.33331
upperback 3.01296 -1.01257 -0.23871
thorax 3.1507 -0.473956 -1.58362
lowerneck -6.9057 -1.36419 -0.355637
upperneck 8.84557 -2.36326 4.13077
head 4.21593 -1.0456 1.31044
rclavicle -9.65348e-015 -3.97569e-015
rhumerus -32.6709 -2.89518 -86.6519
rradius 28.4258
rwrist 4.55633
rhand -17.7668 -10.6149
rfingers 7.12502
rthumb 8.49536 -40.424
lclavicle -9.65348e-015 -3.97569e-015
lhumerus -20.5606 3.52721 83.856
lradius 39.5696
lwrist 22.3692
lhand -23.9452 12.6264
lfingers 7.12502
lthumb 2.53024 42.5912
rfemur -12.9017 6.95887 22.3256
rtibia 37.0301
rfoot -18.2625 -11.6153
rtoes -6.03451
lfemur -5.90362 5.41159 -17.8832
ltibia 29.2136
lfoot -15.2745 6.76932
ltoes -25.487
994
root -34.8618 16.5099 -13.6205 -544.152 -7.87808 182.164
lowerback -0.315796 -0.702135 2.42228
upperback 2.9852 -1.06079 -0.181342
thorax 3.19931 -0.494917 -1.57773
lowerneck -6.89146 -1.35728 -0.350328
upperneck 8.77078 -2.34757 4.1214
head 4.18546 -1.03809 1.30683
rclavicle 7.0817e-016 3.37934e-015
rhumerus -32.555 -2.63747 -86.7027
rradius 28.6664
rwrist 4.25649
rhand -17.9159 -10.7345
rfingers 7.12502
rthumb 8.35149 -40.5494
lclavicle 7.0817e-016 3.37934e-015
lhumerus -20.7339 3.72109 84.002
lradius 38.9227
lwrist 22.2523
lhand -23.8949 12.6371
lfingers 7.12502
lthumb 2.57884 42.6013
rfemur -12.7466 6.88142 22.4266
rtibia 36.8525
rfoot -18.4492 -11.5983
rtoes -5.68178
lfemur -5.87637 5.39334 -17.8756
ltibia 29.1661
lfoot -15.3766 7.14265
ltoes -24.9855
995
root -34.8524 16.5146 -13.6581 -544.057 -8.04934 182.218
lowerback -0.452943 -0.740784 2.52089
upperback 2.96009 -1.1174 -0.122095
thorax 3.24782 -0.519948 -1.57569
lowerneck -6.88359 -1.3462 -0.333451
upperneck 8.70109 -2.32528 4.09075
head 4.15731 -1.02762 1.29434
rclavicle -2.39784e-015 -6.36111e-015
rhumerus -32.4387 -2.4058 -86.7399
rradius 28.9139
rwrist 3.99032
rhand -18.0424 -10.8585
rfingers 7.12502
rthumb 8.22945 -40.6782
lclavicle -2.39784e-015 -6.36111e-015
lhumerus -20.9049 3.91071 84.15
lradius 38.2109
lwrist 22.1009
lhand -23.8422 12.6478
lfingers 7.12502
lthumb 2.62974 42.6114
rfemur -12.5945 6.78722 22.5273
rtibia 36.6992
rfoot -18.6575 -11.5598
rtoes -5.30118
lfemur -5.82675 5.39884 -17.8611
ltibia 29.087
lfoot -15.5015 7.50681
ltoes -24.492
996
root -34.8436 16.5176 -13.6947 -543.964 -8.21659 182.273
lowerback -0.589994 -0.779569 2.62635
upperback 2.93526 -1.17489 -0.0638781
thorax 3.29637 -0.545266 -1.57875
lowerneck -6.8741 -1.33513 -0.309372
upperneck 8.62949 -2.30295 4.05297
head 4.12793 -1.01723 1.27815
rclavicle 3.93966e-014 -9.34288e-015
rhumerus -32.3255 -2.1933 -86.7693
rradius 29.1719
rwrist 3.7561
rhand -18.1352 -10.9672
rfingers 7.12502
rthumb 8.13989 -40.7904
lclavicle 3.93966e-014 -9.34288e-015
lhumerus -21.0689 4.10269 84.2938
lradius 37.4315
lwrist 21.9061
lhand -23.7689 12.6533
lfingers 7.12502
lthumb 2.70058 42.616
rfemur -12.4627 6.66504 22.6251
rtibia 36.5765
rfoot -18.8624 -11.5035
rtoes -4.96553
lfemur -5.7599 5.4286 -17.8427
ltibia 28.9749
lfoot -15.6441 7.87472
ltoes -24.0753
997
root -34.8353 16.519 -13.7303 -543.869 -8.37343 182.334
lowerback -0.726946 -0.815695 2.73781
upperback 2.90752 -1.22936 -0.00526014
thorax 3.34181 -0.568989 -1.58479
lowerneck -6.90348 -1.3132 -0.25402
upperneck 8.60272 -2.26667 3.96737
head 4.12054 -1.00005 1.24118
rclavicle -1.42255e-014 3.57812e-015
rhumerus -32.2175 -2.02821 -86.774
rradius 29.4307
rwrist 3.61209
rhand -18.1328 -10.9945
rfingers 7.12502
rthumb 8.14221 -40.8176
lclavicle -1.42255e-014 3.57812e-015
lhumerus -21.2269 4.29291 84.4326
lradius 36.5858
lwrist 21.6638
lhand -23.6847 12.6572
lfingers 7.12502
lthumb 2.78185 42.6188
rfemur -12.3556 6.52073 22.7179
rtibia 36.4865
rfoot -19.0879 -11.3803
rtoes -4.52509
lfemur -5.67812 5.47771 -17.8194
ltibia 28.8295
lfoot -15.8054 8.24412
ltoes -23.8018
998
root -34.8274 16.5189 -13.7648 -543.769 -8.51373 182.393
lowerback -0.864646 -0.846251 2.84534
upperback 2.8747 -1.27657 0.0539768
thorax 3.38279 -0.589263 -1.58784
lowerneck -6.91604 -1.2968 -0.202593
upperneck 8.56571 -2.23752 3.8865
head 4.10654 -0.986679 1.20612
rclavicle 5.5287e-015 3.57812e-015
rhumerus -32.1218 -1.86642 -86.7771
rradius 29.7089
rwrist 3.45727
rhand -18.1171 -11.0226
rfingers 7.12502
rthumb 8.15736 -40.8451
lclavicle 5.5287e-015 3.57812e-015
lhumerus -21.3781 4.49384 84.5677
lradius 35.6732
lwrist 21.3564
lhand -23.5432 12.6667
lfingers 7.12502
lthumb 2.91851 42.6265
rfemur -12.2798 6.33183 22.7973
rtibia 36.4284
rfoot -19.3133 -11.184
rtoes -4.02551
lfemur -5.58311 5.53141 -17.7985
ltibia 28.6513
lfoot -15.9795 8.61936
ltoes -23.692
